<svg width="84" height="71" viewBox="0 0 84 71" fill="none" xmlns="http://www.w3.org/2000/svg">
<path d="M42 8.875C33.6457 8.875 25.6335 11.6801 19.7261 16.6733C13.8187 21.6664 10.5 28.4386 10.5 35.5C10.5 42.5614 13.8187 49.3336 19.7261 54.3267C25.6335 59.3199 33.6457 62.125 42 62.125C44.905 62.125 47.25 60.1429 47.25 57.6875C47.25 56.5337 46.725 55.4983 45.885 54.6996C45.08 53.9304 44.555 52.895 44.555 51.7708C44.555 49.3154 46.9 47.3333 49.805 47.3333H56C65.66 47.3333 73.5 40.7067 73.5 32.5417C73.5 19.4658 59.395 8.875 42 8.875ZM22.75 35.5C19.845 35.5 17.5 33.5179 17.5 31.0625C17.5 28.6071 19.845 26.625 22.75 26.625C25.655 26.625 28 28.6071 28 31.0625C28 33.5179 25.655 35.5 22.75 35.5ZM33.25 23.6667C30.345 23.6667 28 21.6846 28 19.2292C28 16.7737 30.345 14.7917 33.25 14.7917C36.155 14.7917 38.5 16.7737 38.5 19.2292C38.5 21.6846 36.155 23.6667 33.25 23.6667ZM50.75 23.6667C47.845 23.6667 45.5 21.6846 45.5 19.2292C45.5 16.7737 47.845 14.7917 50.75 14.7917C53.655 14.7917 56 16.7737 56 19.2292C56 21.6846 53.655 23.6667 50.75 23.6667ZM61.25 35.5C58.345 35.5 56 33.5179 56 31.0625C56 28.6071 58.345 26.625 61.25 26.625C64.155 26.625 66.5 28.6071 66.5 31.0625C66.5 33.5179 64.155 35.5 61.25 35.5Z" fill="black"/>
</svg>
