<svg width="16" height="16" viewBox="0 0 16 16" fill="none" xmlns="http://www.w3.org/2000/svg">
<path opacity="0.3" d="M6.9 15.91C7.26 15.96 7.62 16 8 16C10.0993 15.9991 12.1142 15.1731 13.61 13.7L10.89 9L6.9 15.91ZM5.86 15.7L8.57 11H0.59C1.05238 12.1331 1.76753 13.1456 2.68087 13.9601C3.59421 14.7747 4.68159 15.3698 5.86 15.7V15.7ZM4.54 8L1.7 3.09C0.600073 4.49044 0.00150107 6.21925 0 8C0 8.69 0.1 9.36 0.26 10H5.69L4.54 8ZM14.3 12.91C15.3999 11.5096 15.9985 9.78075 16 8C16 7.31 15.9 6.64 15.74 6H10.31L14.3 12.91ZM9.73 5H15.41C14.9471 3.86548 14.2306 2.85202 13.3154 2.03733C12.4001 1.22263 11.3105 0.628333 10.13 0.3L7.42 5H9.73ZM6.27 5L9.1 0.0799999C8.74 0.0299999 8.37 0 8 0C5.82 0 3.84 0.88 2.4 2.3L5.12 7L6.27 5Z" fill="black"/>
</svg>
